<svg xmlns="http://www.w3.org/2000/svg" viewBox="0 0 64 64">
  <rect width="64" height="64" rx="14" fill="#1f493e"/>
  <g transform="translate(8 7)" fill="#fff">
    <path d="M24 2 42 8v14c0 11-7 19-18 24C13 41 6 33 6 22V8Z" fill="none" stroke="#fff" stroke-width="2.3" stroke-linejoin="round"/>
    <path transform="translate(.5 8) scale(.68)" d="M35.6 4.9c.5-1.7-2-4.5-2-4.5s3.4.3 5.7 2.8c2.2-1.7 5-2.2 5-2.2s-.7 1-1 1.7c3.8 0 3.4.7 4.5.7l-2.1 1.2c4.4 1.2 9.2 6.8 9.2 6.8s-1.9-.7-5-.1c6.9 2 5.4 5.4 7.5 7.3-4-.9-5-1.9-6.5-1 2.9.6 4.1 3.3 4.1 3.3l-.8-.4c.5.6 3.6 9.4 0 13.8.4-3.7-2.1-4.7-2.1-4.7s.6 7.3-.7 9.1q-.3-1-.7-1.5s.2 4-2 5.5c-.2-4.5-1.1-5-1.6-5.2-4.2 6-5 6.3-6.7 8 .7-3.3.6-4.7.2-5.3-3.2 3.2-.5 4.1-4.8 7.8.2-4-.7-5-.7-5s.3 2.3-1.7 4c-.4-4.6-1-5.6-.6-8.3-1.8 2.3-2 3.1-2 3.1-.3-1 .4-3.3 0-4.1-.9 3.2-3.2 3.8-3.2 3.8s1.2-3.9.5-5.3c-2.1 2.7-1.1 5-5 6.5.7-1.6.7-3 .7-3s-2.6 3.7-3.1 5.7c-.6-2 .2-3.9.2-3.9a9 9 0 0 0-2.8 4.2c-1-3.1-.5-4.9-.5-4.9s-.7.3-1.5 1c1-3.6 1.9-4.5 2.4-5.4-1.5.8-2.1 1.6-2.7 2-.3-1.8.9-6.1 4.8-7.4-1.9-2-2.1-3.4-2.1-4.7 1.8 2.3 3.6 3 4.6 2s2-1 3.2-2.4 3.2-1.1 4.5-2.3 4.1-3.8 3.7-5.7c-.4.9-1 .4-.8 1.4q-1-.4-.7.7c-.8-.3-.5.4-.8.2-1.5-.5-2.4 1.1-2.8 2.1q-.5 1.3-2.3.4c-1.8-1-1-1-.4-1.3.4-.3-.4-1.4-.4-1.7.6.4 1.7 0 2-.2-3-2-6-1.3-5.3 1.6-1.6-.4-1.2-2-1.2-2s-4.7 1-4.6-4c1.6 2.8 4.7 2.9 6.2 2.3 1.6-.6 4 .2 5.8 1.3.5.3.6-.3.4-.6-.8-1.8-3.2-4.1-4-1.5-.7-1.5-1.3-.4-2-.9S21 13.5 21.9 12s1.5-.9 3.6-2.6c2.2-1.8 2.8-2.3 4.8-2.6.6 0 .7-1.4.5-1.8l2.4.6s-.3-2.3-2.3-1.6c1.4-1.7 3.4-.5 4.7.8z"/>
  </g>
</svg>
